# xmcd
#
# Track frame offsets: 
#        150
#        12645
#        29669
#        45869
#        61364
#        77818
#        85528
#        101716
#        116794
#        130590
#        145093
#
# Disc length: 2229 seconds
#
# Revision: 1
# Processed by: cddbd v1.5.2PL0 Copyright (c) Steve Scherf et al.
# Submitted via: ExactAudioCopyFreeDBPlugin 1.0
#
DISCID=8b08b30b
DTITLE=Tuxedo - Tuxedo II
DYEAR=2017
DGENRE=Pop/Funk
TTITLE0=Fux with the Tux
TTITLE1=2nd Time Around
TTITLE2=Take a Picture
TTITLE3=Rotational
TTITLE4=Shine
TTITLE5=Scooter's Groove
TTITLE6=U Like It
TTITLE7=Back in Town
TTITLE8=Special
TTITLE9=Livin' 4 Your Lovin'
TTITLE10=July
EXTD=
EXTT0=
EXTT1=
EXTT2=
EXTT3=
EXTT4=
EXTT5=
EXTT6=
EXTT7=
EXTT8=
EXTT9=
EXTT10=
PLAYORDER=
